HIERARCHY
ROOT Hips
{
	OFFSET 0.000000 0.000000 0.000000
	CHANNELS 6 Xposition Yposition Zposition Xrotation Yrotation Zrotation
	JOINT LeftUpLeg_virtual
	{
		OFFSET 0.000000 0.000000 0.000000
		CHANNELS 3 Xrotation Yrotation Zrotation
		JOINT LeftUpLeg
		{
			OFFSET 15.427100 -6.655098 0.678600
			CHANNELS 3 Xrotation Yrotation Zrotation
			JOINT LeftLeg
			{
				OFFSET 4.081073 -39.591068 13.024000
				CHANNELS 3 Xrotation Yrotation Zrotation
				JOINT LeftFoot
				{
					OFFSET -4.081074 -37.707932 -15.979700
					CHANNELS 3 Xrotation Yrotation Zrotation
					JOINT LeftToeBase
					{
						OFFSET 5.346399 -15.068900 20.645000
						CHANNELS 3 Xrotation Yrotation Zrotation
						JOINT LeftToe_End
						{
							OFFSET 2.754700 0.931300 11.300900
							CHANNELS 3 Xrotation Yrotation Zrotation
							End Site
							{
								OFFSET 0 0 0
							}
						}
					}
				}
			}
		}
	}
	JOINT RightUpLeg_virtual
	{
		OFFSET 0.000000 0.000000 0.000000
		CHANNELS 3 Xrotation Yrotation Zrotation
		JOINT RightUpLeg
		{
			OFFSET -15.569500 -6.655098 0.678600
			CHANNELS 3 Xrotation Yrotation Zrotation
			JOINT RightLeg
			{
				OFFSET -4.081825 -39.591045 13.023800
				CHANNELS 3 Xrotation Yrotation Zrotation
				JOINT RightFoot
				{
					OFFSET 4.081824 -37.707954 -15.979600
					CHANNELS 3 Xrotation Yrotation Zrotation
					JOINT RightToeBase
					{
						OFFSET -5.346400 -15.068900 20.645000
						CHANNELS 3 Xrotation Yrotation Zrotation
						JOINT RightToe_End
						{
							OFFSET -2.754700 0.931300 11.300900
							CHANNELS 3 Xrotation Yrotation Zrotation
							End Site
							{
								OFFSET 0 0 0
							}
						}
					}
				}
			}
		}
	}
	JOINT Spine_virtual
	{
		OFFSET 0.000000 0.000000 0.000000
		CHANNELS 3 Xrotation Yrotation Zrotation
		JOINT Spine
		{
			OFFSET -0.279200 12.230698 -2.892100
			CHANNELS 3 Xrotation Yrotation Zrotation
			JOINT Spine1
			{
				OFFSET -0.232667 10.192268 -1.242267
				CHANNELS 3 Xrotation Yrotation Zrotation
				JOINT Spine1_split
				{
					OFFSET -0.232667 10.192268 -1.242267
					CHANNELS 3 Xrotation Yrotation Zrotation
					JOINT Spine2
					{
						OFFSET -0.232667 10.192268 -1.242267
						CHANNELS 3 Xrotation Yrotation Zrotation
						JOINT Neck_virtual
						{
							OFFSET 0.000000 0.000000 0.000000
							CHANNELS 3 Xrotation Yrotation Zrotation
							JOINT Neck
							{
								OFFSET -0.418800 17.814194 8.416900
								CHANNELS 3 Xrotation Yrotation Zrotation
								JOINT Head
								{
									OFFSET 0.000000 7.031097 3.806800
									CHANNELS 3 Xrotation Yrotation Zrotation
									JOINT HeadTop_End
									{
										OFFSET 0.000000 24.646606 12.978600
										CHANNELS 3 Xrotation Yrotation Zrotation
										End Site
										{
											OFFSET 0 0 0
										}
									}
								}
							}
						}
						JOINT LeftShoulder_virtual
						{
							OFFSET 0.000000 0.000000 0.000000
							CHANNELS 3 Xrotation Yrotation Zrotation
							JOINT LeftShoulder
							{
								OFFSET 8.476499 7.247704 -3.868750
								CHANNELS 3 Xrotation Yrotation Zrotation
								JOINT LeftShoulder_split
								{
									OFFSET 8.476499 7.247704 -3.868750
									CHANNELS 3 Xrotation Yrotation Zrotation
									JOINT LeftArm
									{
										OFFSET 9.308998 -2.777710 0.208600
										CHANNELS 3 Xrotation Yrotation Zrotation
										JOINT LeftForeArm
										{
											OFFSET 29.972298 0.000000 0.000000
											CHANNELS 3 Xrotation Yrotation Zrotation
											JOINT LeftHand
											{
												OFFSET 26.026505 0.000000 0.000000
												CHANNELS 3 Xrotation Yrotation Zrotation
												End Site
												{
													OFFSET 0 0 0
												}
											}
										}
									}
								}
							}
						}
						JOINT RightShoulder_virtual
						{
							OFFSET 0.000000 0.000000 0.000000
							CHANNELS 3 Xrotation Yrotation Zrotation
							JOINT RightShoulder
							{
								OFFSET -7.570500 7.247704 -3.868750
								CHANNELS 3 Xrotation Yrotation Zrotation
								JOINT RightShoulder_split
								{
									OFFSET -7.570500 7.247704 -3.868750
									CHANNELS 3 Xrotation Yrotation Zrotation
									JOINT RightArm
									{
										OFFSET -9.308998 -2.777710 0.208500
										CHANNELS 3 Xrotation Yrotation Zrotation
										JOINT RightForeArm
										{
											OFFSET -29.972300 0.000000 0.000000
											CHANNELS 3 Xrotation Yrotation Zrotation
											JOINT RightHand
											{
												OFFSET -26.026505 0.000000 0.000000
												CHANNELS 3 Xrotation Yrotation Zrotation
												End Site
												{
													OFFSET 0 0 0
												}
											}
										}
									}
								}
							}
						}
					}
				}
			}
		}
	}
}
MOTION
Frames: 10
Frame Time: 0.03333333
12.396373 16.408092 -36.800285 0.000000 0.000000 0.000000 68.736886 6.730687 -3.466076 -6.181008 -6.605146 33.501306 30.904086 -2.745601 -16.169503 30.869866 51.963700 -30.486590 -5.741650 -7.865954 -3.987102 0.000000 0.000000 0.000000 70.981293 2.929050 -3.185576 -34.884658 -39.021714 -41.614635 35.350389 26.770313 -6.501637 37.770584 -45.739673 35.662088 16.631618 11.216609 3.782829 0.000000 0.000000 0.000000 75.363112 6.158531 -6.139224 15.525114 1.125416 -2.265849 -8.389240 -3.757418 -0.126173 -0.021904 0.430952 -0.017840 0.000000 0.000000 0.000000 -6.824483 -0.957701 1.220680 -8.057146 1.555210 12.584545 -25.358969 -35.646969 -11.582984 0.000000 0.000000 0.000000 -11.376660 -1.277579 -0.904125 -0.757386 -11.546849 4.921695 -0.055653 1.423767 -5.396685 29.917342 -32.439147 -54.563352 -6.928374 -36.540836 -6.463212 0.000000 0.000000 0.000000 -8.056428 -2.515169 0.124821 5.057642 2.873204 8.229285 -24.801216 1.820513 4.993658 21.426554 16.646747 46.741672 -19.369884 32.139984 28.023001 0.000000 0.000000 0.000000 
12.396073 16.408958 -36.804977 0.000000 0.000000 0.000000 68.734625 6.724415 -3.457285 -6.175013 -6.610411 33.499438 30.907354 -2.743241 -16.171467 30.883267 51.962372 -30.495159 -5.731301 -7.863596 -3.993416 0.000000 0.000000 0.000000 70.973834 2.928666 -3.184225 -34.874789 -39.026069 -41.612135 35.365695 26.767750 -6.504559 37.765745 -45.740151 35.665779 16.644298 11.219598 3.779394 0.000000 0.000000 0.000000 75.364826 6.168071 -6.141619 15.529869 1.129432 -2.269126 -8.387883 -3.751499 -0.126177 -0.021361 0.432521 -0.017614 0.000000 0.000000 0.000000 -6.821929 -0.955045 1.220571 -8.060053 1.553193 12.602040 -25.354260 -35.666804 -11.581379 0.000000 0.000000 0.000000 -11.375430 -1.272865 -0.906607 -0.752317 -11.563483 4.927464 -0.080746 1.425891 -5.375037 29.914927 -32.432361 -54.563813 -6.933899 -36.522818 -6.462144 0.000000 0.000000 0.000000 -8.055423 -2.510888 0.125180 5.055414 2.862414 8.225962 -24.809672 1.803729 4.986555 21.402154 16.598688 46.790030 -19.391523 32.128674 28.043439 0.000000 0.000000 0.000000 
12.396255 16.412785 -36.811317 0.000000 0.000000 0.000000 68.729359 6.722536 -3.451610 -6.171347 -6.610173 33.493967 30.912371 -2.732561 -16.167104 30.901046 51.961695 -30.501917 -5.722469 -7.859389 -4.003788 0.000000 0.000000 0.000000 70.965549 2.926982 -3.183118 -34.851050 -39.042888 -41.598919 35.371688 26.750258 -6.506162 37.744575 -45.760222 35.654933 16.660945 11.226417 3.772996 0.000000 0.000000 0.000000 75.362163 6.182405 -6.149493 15.540089 1.137707 -2.275747 -8.385965 -3.745012 -0.125096 -0.020931 0.435442 -0.018344 0.000000 0.000000 0.000000 -6.817280 -0.950884 1.221586 -8.059914 1.539172 12.652276 -25.367164 -35.703543 -11.595144 0.000000 0.000000 0.000000 -11.376702 -1.266975 -0.906578 -0.744876 -11.599637 4.944689 -0.090064 1.425500 -5.373154 29.897278 -32.435916 -54.556939 -6.931264 -36.476796 -6.456430 0.000000 0.000000 0.000000 -8.055932 -2.507247 0.127061 5.046654 2.824589 8.221817 -24.821348 1.789790 4.984087 21.368595 16.531399 46.832855 -19.429154 32.096531 28.090092 0.000000 0.000000 0.000000 
12.395359 16.418110 -36.819656 0.000000 0.000000 0.000000 68.722911 6.726587 -3.449405 -6.173961 -6.607691 33.486225 30.921137 -2.719298 -16.156300 30.920318 51.959199 -30.509632 -5.709881 -7.853924 -4.017868 0.000000 0.000000 0.000000 70.953474 2.924631 -3.179139 -34.823593 -39.065547 -41.584698 35.370790 26.725094 -6.506830 37.720174 -45.785511 35.643998 16.678034 11.235912 3.764851 0.000000 0.000000 0.000000 75.356767 6.197087 -6.159231 15.554658 1.149207 -2.284748 -8.382917 -3.738147 -0.123636 -0.021679 0.438678 -0.019114 0.000000 0.000000 0.000000 -6.811551 -0.945399 1.222858 -8.057986 1.516648 12.727759 -25.416464 -35.750696 -11.633223 0.000000 0.000000 0.000000 -11.378770 -1.260180 -0.904869 -0.735715 -11.652485 4.969774 -0.091330 1.420980 -5.394168 29.869394 -32.451001 -54.541280 -6.922412 -36.398621 -6.447968 0.000000 0.000000 0.000000 -8.056386 -2.503640 0.130254 5.033137 2.767304 8.212483 -24.832333 1.786898 5.000968 21.333507 16.458015 46.850412 -19.480179 32.058166 28.159506 0.000000 0.000000 0.000000 
12.394271 16.423687 -36.825272 0.000000 0.000000 0.000000 68.715453 6.737222 -3.451124 -6.181107 -6.606941 33.473866 30.934166 -2.704554 -16.140254 30.934999 51.956552 -30.510209 -5.697818 -7.848422 -4.032735 0.000000 0.000000 0.000000 70.939861 2.926608 -3.174807 -34.800405 -39.086649 -41.578592 35.373447 26.705408 -6.508210 37.705571 -45.797801 35.645145 16.692009 11.246393 3.758583 0.000000 0.000000 0.000000 75.349356 6.213934 -6.171975 15.570818 1.162123 -2.295099 -8.378494 -3.731015 -0.122018 -0.023331 0.439075 -0.020585 0.000000 0.000000 0.000000 -6.802774 -0.938862 1.224567 -8.055466 1.491653 12.818295 -25.515685 -35.792947 -11.701617 0.000000 0.000000 0.000000 -11.380245 -1.252369 -0.902208 -0.726613 -11.717452 4.999340 -0.087451 1.416882 -5.432724 29.829902 -32.478540 -54.519007 -6.910525 -36.287344 -6.439224 0.000000 0.000000 0.000000 -8.054639 -2.499531 0.133618 5.016920 2.701190 8.193103 -24.834611 1.782042 5.026516 21.302600 16.384475 46.832046 -19.534597 32.017420 28.240387 0.000000 0.000000 0.000000 
12.392059 16.429577 -36.831413 0.000000 0.000000 0.000000 68.707844 6.754144 -3.455039 -6.191404 -6.615055 33.456456 30.954318 -2.692549 -16.120194 30.951945 51.951375 -30.508884 -5.693075 -7.843210 -4.044675 0.000000 0.000000 0.000000 70.925989 2.935601 -3.171293 -34.787089 -39.102560 -41.587031 35.386363 26.693344 -6.509342 37.711544 -45.789581 35.662149 16.708934 11.256000 3.757624 0.000000 0.000000 0.000000 75.342437 6.232910 -6.186405 15.585261 1.174051 -2.306060 -8.371549 -3.723531 -0.120103 -0.023295 0.437643 -0.021050 0.000000 0.000000 0.000000 -6.789683 -0.931180 1.226567 -8.051846 1.471168 12.911913 -25.666116 -35.818410 -11.795496 0.000000 0.000000 0.000000 -11.379649 -1.244034 -0.899372 -0.719836 -11.790070 5.029242 -0.076827 1.439981 -5.488900 29.781069 -32.512134 -54.494446 -6.901690 -36.147540 -6.433535 0.000000 0.000000 0.000000 -8.050265 -2.494424 0.136495 5.000874 2.638667 8.161444 -24.844267 1.770359 5.062557 21.278534 16.314952 46.772917 -19.580660 31.972064 28.318801 0.000000 0.000000 0.000000 
12.391168 16.435707 -36.835464 0.000000 0.000000 0.000000 68.698726 6.775877 -3.458651 -6.202922 -6.635438 33.431546 30.982226 -2.682822 -16.097001 30.975693 51.946017 -30.507668 -5.695023 -7.838439 -4.049544 0.000000 0.000000 0.000000 70.910116 2.948871 -3.167811 -34.789528 -39.114291 -41.613095 35.409869 26.682858 -6.507807 37.741832 -45.764282 35.693821 16.743208 11.262745 3.765016 0.000000 0.000000 0.000000 75.336768 6.254394 -6.199291 15.592649 1.180365 -2.317353 -8.362482 -3.716139 -0.117826 -0.021913 0.436641 -0.021171 0.000000 0.000000 0.000000 -6.773107 -0.922248 1.229512 -8.040424 1.463338 12.996195 -25.850791 -35.830810 -11.899788 0.000000 0.000000 0.000000 -11.376555 -1.235933 -0.897714 -0.716533 -11.864185 5.055571 -0.066218 1.489656 -5.552812 29.728771 -32.536655 -54.477992 -6.904498 -35.993734 -6.434890 0.000000 0.000000 0.000000 -8.043262 -2.487489 0.138860 4.988417 2.591247 8.121072 -24.881578 1.739248 5.105395 21.253841 16.250687 46.679589 -19.610445 31.911207 28.383751 0.000000 0.000000 0.000000 
12.389903 16.443218 -36.833084 0.000000 0.000000 0.000000 68.689915 6.805784 -3.463498 -6.211468 -6.664794 33.397180 31.010801 -2.664602 -16.073460 30.993571 51.951314 -30.491129 -5.685085 -7.834930 -4.048902 0.000000 0.000000 0.000000 70.894816 2.967899 -3.166025 -34.806408 -39.124348 -41.655432 35.437511 26.670183 -6.502683 37.785658 -45.730483 35.732790 16.802882 11.265262 3.780388 0.000000 0.000000 0.000000 75.329815 6.280587 -6.209205 15.587644 1.177833 -2.329795 -8.352415 -3.710543 -0.115350 -0.020809 0.433694 -0.021093 0.000000 0.000000 0.000000 -6.755011 -0.913072 1.233318 -8.015870 1.470898 13.059336 -26.047136 -35.839235 -11.992810 0.000000 0.000000 0.000000 -11.373277 -1.228787 -0.896959 -0.717480 -11.936363 5.078925 -0.037314 1.555621 -5.602647 29.673811 -32.549031 -54.479406 -6.928712 -35.854651 -6.447887 0.000000 0.000000 0.000000 -8.035879 -2.480544 0.140560 4.980306 2.569042 8.080012 -24.924477 1.690340 5.138444 21.221377 16.192369 46.568739 -19.619679 31.829187 28.429995 0.000000 0.000000 0.000000 
12.386820 16.450764 -36.825439 0.000000 0.000000 0.000000 68.682511 6.841595 -3.467995 -6.217499 -6.699993 33.358436 31.033016 -2.639148 -16.050303 31.003899 51.966210 -30.464928 -5.649806 -7.833423 -4.042642 0.000000 0.000000 0.000000 70.884776 2.993287 -3.164863 -34.828009 -39.132189 -41.704534 35.458425 26.650428 -6.493910 37.823798 -45.698911 35.769110 16.880365 11.262313 3.799560 0.000000 0.000000 0.000000 75.323367 6.308895 -6.211281 15.568313 1.161579 -2.343143 -8.343803 -3.709866 -0.113591 -0.018700 0.429994 -0.019444 0.000000 0.000000 0.000000 -6.740075 -0.905936 1.237172 -7.972214 1.496442 13.093510 -26.229964 -35.854545 -12.052166 0.000000 0.000000 0.000000 -11.371704 -1.225080 -0.898364 -0.722630 -12.003152 5.094510 -0.001006 1.591121 -5.619075 29.617435 -32.543632 -54.504985 -6.979547 -35.740526 -6.471214 0.000000 0.000000 0.000000 -8.030878 -2.475728 0.141693 4.977133 2.577283 8.044671 -24.943214 1.633122 5.163689 21.175176 16.146453 46.451830 -19.622174 31.735443 28.465922 0.000000 0.000000 0.000000 
12.382890 16.457565 -36.815758 0.000000 0.000000 0.000000 68.676944 6.877318 -3.470050 -6.218943 -6.740360 33.319295 31.042790 -2.611966 -16.028764 31.009394 51.981295 -30.438448 -5.594941 -7.834271 -4.028685 0.000000 0.000000 0.000000 70.881524 3.023015 -3.164498 -34.847314 -39.137872 -41.751082 35.468865 26.623359 -6.483606 37.850658 -45.672461 35.803882 16.964684 11.253874 3.816976 0.000000 0.000000 0.000000 75.319494 6.338113 -6.205736 15.535726 1.129949 -2.356112 -8.339946 -3.716759 -0.113836 -0.017976 0.425859 -0.017733 0.000000 0.000000 0.000000 -6.732341 -0.904001 1.240288 -7.911128 1.539589 13.094200 -26.390925 -35.879318 -12.071669 0.000000 0.000000 0.000000 -11.374015 -1.225841 -0.903199 -0.730057 -12.064208 5.099494 0.033613 1.580285 -5.588789 29.553785 -32.518339 -54.559244 -7.057998 -35.642051 -6.501777 0.000000 0.000000 0.000000 -8.030054 -2.476091 0.141786 4.977853 2.616916 8.019910 -24.940677 1.567247 5.176486 21.117434 16.115896 46.336891 -19.631068 31.641278 28.500890 0.000000 0.000000 0.000000 
